<?xml version="1.0" encoding="utf-8"?>
<!-- Generator: Adobe Illustrator 15.0.0, SVG Export Plug-In . SVG Version: 6.00 Build 0)  -->
<!DOCTYPE svg PUBLIC "-//W3C//DTD SVG 1.1//EN" "http://www.w3.org/Graphics/SVG/1.1/DTD/svg11.dtd">
<svg version="1.1" id="Layer_1" xmlns="http://www.w3.org/2000/svg" xmlns:xlink="http://www.w3.org/1999/xlink" x="0px" y="0px"
	 width="367.141px" height="84.73px" viewBox="0 0 367.141 84.73" enable-background="new 0 0 367.141 84.73" xml:space="preserve">
<path fill="#79B29F" d="M50.444,42.313L24.122,15.99c-5.765,7.237-9.212,16.402-9.212,26.375c0,9.944,3.428,19.089,9.165,26.315
	L50.444,42.313z"/>
<path fill="#DD9999" d="M90.504,68.646c5.721-7.223,9.138-16.352,9.138-26.28C99.641,18.967,80.673,0,57.274,0
	c-9.928,0-19.06,3.417-26.281,9.137L90.504,68.646z"/>
<path fill="#473D3F" d="M57.307,49.176L30.935,75.547c7.231,5.748,16.384,9.185,26.34,9.185c9.973,0,19.139-3.446,26.376-9.213
	L57.307,49.176z"/>
<path fill="#00AA9D" d="M57.274,42.163"/>
<path fill="none" d="M57.209,42.431"/>
<rect x="0" y="0.801" fill="#DD9999" width="10.284" height="10.284"/>
<rect x="0" y="73.646" fill="#79B29F" width="10.284" height="10.284"/>
<rect x="0" y="37.224" fill="#473D3F" width="10.284" height="10.284"/>
<path fill="#473D3F" d="M104.978,19.372h11.555v13.085h12.626V19.372h11.605v37.393h-11.605V41.639h-12.626v15.125h-11.555V19.372z"
	/>
<path fill="#473D3F" d="M153.298,38.451l-9.922-1.046c0.374-1.734,0.914-3.1,1.62-4.095s1.722-1.856,3.048-2.589
	c0.952-0.527,2.262-0.935,3.929-1.225c1.667-0.289,3.469-0.435,5.407-0.435c3.112,0,5.611,0.175,7.499,0.523s3.46,1.076,4.72,2.181
	c0.884,0.766,1.582,1.85,2.091,3.252c0.51,1.403,0.765,2.742,0.765,4.019V51c0,1.274,0.081,2.273,0.243,2.997
	c0.161,0.723,0.514,1.646,1.059,2.768h-9.743c-0.393-0.697-0.646-1.229-0.767-1.594c-0.119-0.365-0.238-0.939-0.356-1.722
	c-1.36,1.31-2.713,2.244-4.057,2.806c-1.836,0.748-3.971,1.123-6.401,1.123c-3.231,0-5.685-0.748-7.359-2.245
	c-1.675-1.496-2.513-3.341-2.513-5.535c0-2.057,0.604-3.75,1.811-5.076c1.208-1.327,3.436-2.313,6.684-2.959
	c3.894-0.781,6.419-1.33,7.574-1.645c1.156-0.314,2.381-0.728,3.673-1.237c0-1.274-0.264-2.168-0.791-2.678
	c-0.526-0.51-1.453-0.766-2.779-0.766c-1.7,0-2.977,0.272-3.826,0.816C154.241,36.479,153.706,37.277,153.298,38.451z
	 M162.302,43.909c-1.429,0.51-2.917,0.961-4.464,1.352c-2.108,0.562-3.442,1.114-4.004,1.658c-0.579,0.561-0.867,1.199-0.867,1.913
	c0,0.815,0.284,1.483,0.854,2.002c0.57,0.518,1.407,0.777,2.513,0.777c1.156,0,2.232-0.28,3.228-0.842
	c0.995-0.561,1.7-1.246,2.117-2.053c0.417-0.808,0.625-1.858,0.625-3.15v-1.657H162.302z"/>
<path fill="#473D3F" d="M172.923,49.24l10.306-0.97c0.425,1.225,1.021,2.101,1.786,2.627c0.765,0.527,1.785,0.791,3.061,0.791
	c1.394,0,2.474-0.297,3.239-0.892c0.595-0.441,0.893-0.993,0.893-1.655c0-0.747-0.391-1.324-1.173-1.731
	c-0.561-0.289-2.049-0.646-4.463-1.07c-3.605-0.628-6.109-1.21-7.512-1.745c-1.403-0.535-2.585-1.438-3.545-2.714
	c-0.961-1.274-1.441-2.728-1.441-4.357c0-1.783,0.519-3.32,1.556-4.611s2.467-2.255,4.285-2.893c1.819-0.637,4.26-0.956,7.321-0.956
	c3.229,0,5.615,0.247,7.154,0.74c1.539,0.494,2.822,1.259,3.852,2.296s1.883,2.44,2.563,4.208l-9.847,0.969
	c-0.255-0.866-0.68-1.505-1.274-1.912c-0.816-0.545-1.804-0.816-2.959-0.816c-1.173,0-2.028,0.208-2.563,0.624
	s-0.803,0.921-0.803,1.515c0,0.663,0.34,1.163,1.02,1.502c0.681,0.34,2.159,0.646,4.438,0.917c3.452,0.392,6.02,0.936,7.703,1.631
	c1.684,0.697,2.972,1.69,3.863,2.981c0.894,1.291,1.34,2.709,1.34,4.255c0,1.563-0.473,3.084-1.416,4.563
	c-0.944,1.478-2.433,2.653-4.464,3.528c-2.032,0.875-4.801,1.313-8.303,1.313c-4.949,0-8.473-0.706-10.572-2.117
	C174.865,53.849,173.518,51.842,172.923,49.24z"/>
<path fill="#473D3F" d="M202.75,19.372h10.611v19.301l7.754-8.997h12.779l-9.719,9.489l10.279,17.599h-11.697l-5.485-10.858
	l-3.911,3.818v7.04H202.75V19.372z"/>
<path fill="#473D3F" d="M261.962,45.797h-20.813c0.187,1.667,0.638,2.908,1.352,3.724c1.003,1.173,2.313,1.761,3.929,1.761
	c1.021,0,1.989-0.256,2.907-0.766c0.562-0.323,1.165-0.893,1.812-1.709l10.229,0.944c-1.564,2.721-3.453,4.672-5.663,5.854
	c-2.211,1.183-5.382,1.773-9.514,1.773c-3.588,0-6.411-0.506-8.468-1.519c-2.059-1.012-3.762-2.618-5.114-4.82
	c-1.352-2.202-2.028-4.791-2.028-7.768c0-4.233,1.356-7.661,4.068-10.278c2.712-2.618,6.458-3.929,11.236-3.929
	c3.877,0,6.938,0.587,9.183,1.761c2.245,1.173,3.954,2.874,5.127,5.101c1.173,2.228,1.76,5.127,1.76,8.698v1.173H261.962z
	 M251.402,40.823c-0.204-2.007-0.744-3.443-1.62-4.312s-2.028-1.301-3.456-1.301c-1.649,0-2.968,0.655-3.954,1.964
	c-0.629,0.816-1.029,2.032-1.199,3.647L251.402,40.823L251.402,40.823z"/>
<path fill="#473D3F" d="M263.171,19.372h10.407v37.393h-10.407V19.372z"/>
<path fill="#473D3F" d="M276.649,19.372h10.407v37.393h-10.407V19.372z"/>
<path fill="#79B29F" d="M290.407,19.372h19.207c4.183,0,7.315,0.995,9.399,2.983c2.082,1.989,3.124,4.821,3.124,8.494
	c0,3.775-1.136,6.727-3.405,8.852c-2.271,2.125-5.734,3.188-10.395,3.188h-6.324v13.876h-11.606V19.372L290.407,19.372z
	 M302.014,35.313h2.829c2.229,0,3.794-0.387,4.693-1.161c0.901-0.772,1.353-1.764,1.353-2.972c0-1.173-0.392-2.168-1.174-2.984
	c-0.781-0.815-2.253-1.224-4.413-1.224h-3.288V35.313L302.014,35.313z"/>
<path fill="#79B29F" d="M323.959,19.372h10.382v7.064h-10.382V19.372z M323.959,29.676h10.382v27.088h-10.382V29.676z"/>
<path fill="#79B29F" d="M367.127,45.797h-20.813c0.187,1.667,0.638,2.908,1.352,3.724c1.003,1.173,2.313,1.761,3.93,1.761
	c1.02,0,1.988-0.256,2.906-0.766c0.563-0.323,1.165-0.893,1.813-1.709l10.229,0.944c-1.564,2.721-3.453,4.672-5.663,5.854
	c-2.211,1.183-5.382,1.773-9.515,1.773c-3.588,0-6.41-0.506-8.468-1.519c-2.059-1.012-3.764-2.618-5.114-4.82
	s-2.027-4.791-2.027-7.768c0-4.233,1.355-7.661,4.068-10.278c2.711-2.618,6.457-3.929,11.235-3.929c3.877,0,6.938,0.587,9.183,1.761
	c2.245,1.173,3.953,2.874,5.127,5.101c1.174,2.228,1.76,5.127,1.76,8.698v1.173H367.127z M356.566,40.823
	c-0.203-2.007-0.743-3.443-1.619-4.312s-2.027-1.301-3.456-1.301c-1.649,0-2.968,0.655-3.954,1.964
	c-0.629,0.816-1.028,2.032-1.198,3.647L356.566,40.823L356.566,40.823z"/>
<g>
	<path fill="#473D3F" d="M104.75,61.138h6.078v1.649h-2.039v5.027h-2v-5.027h-2.039V61.138z"/>
	<path fill="#473D3F" d="M111.178,61.138h1.796v2.459c0.243-0.261,0.486-0.448,0.728-0.56c0.242-0.112,0.527-0.168,0.856-0.168
		c0.487,0,0.873,0.152,1.153,0.46c0.281,0.307,0.421,0.776,0.421,1.412v3.074h-1.805v-2.659c0-0.304-0.054-0.519-0.163-0.646
		c-0.108-0.126-0.262-0.188-0.459-0.188c-0.218,0-0.395,0.085-0.53,0.255c-0.135,0.17-0.202,0.475-0.202,0.916v2.322h-1.797v-6.678
		H111.178z"/>
	<path fill="#473D3F" d="M118.167,64.545l-1.717-0.188c0.065-0.31,0.158-0.553,0.28-0.73s0.298-0.332,0.526-0.462
		c0.165-0.095,0.393-0.167,0.681-0.22c0.289-0.051,0.601-0.076,0.936-0.076c0.539,0,0.971,0.03,1.297,0.093
		c0.327,0.062,0.6,0.191,0.817,0.389c0.153,0.137,0.272,0.331,0.362,0.581c0.089,0.25,0.132,0.49,0.132,0.717v2.137
		c0,0.228,0.014,0.405,0.042,0.534c0.027,0.13,0.089,0.295,0.183,0.494h-1.686c-0.068-0.125-0.112-0.219-0.132-0.285
		c-0.021-0.065-0.042-0.168-0.063-0.308c-0.235,0.234-0.469,0.401-0.702,0.501c-0.317,0.134-0.687,0.201-1.107,0.201
		c-0.56,0-0.983-0.134-1.273-0.401c-0.29-0.267-0.435-0.597-0.435-0.987c0-0.368,0.104-0.669,0.313-0.907
		c0.209-0.237,0.594-0.413,1.156-0.528c0.674-0.14,1.111-0.237,1.311-0.293c0.2-0.056,0.412-0.13,0.636-0.221
		c0-0.229-0.045-0.387-0.138-0.479c-0.091-0.091-0.251-0.137-0.48-0.137c-0.294,0-0.516,0.049-0.662,0.146
		C118.331,64.193,118.238,64.335,118.167,64.545z M119.725,65.52c-0.247,0.091-0.504,0.171-0.772,0.241
		c-0.365,0.1-0.596,0.199-0.693,0.296c-0.1,0.102-0.149,0.214-0.149,0.342c0,0.146,0.049,0.266,0.147,0.357
		c0.1,0.093,0.243,0.139,0.436,0.139c0.2,0,0.386-0.05,0.559-0.149c0.172-0.101,0.294-0.224,0.366-0.367
		c0.072-0.145,0.108-0.332,0.108-0.563L119.725,65.52L119.725,65.52z"/>
	<path fill="#473D3F" d="M123.894,61.138v1.84h0.988v1.357h-0.988v1.714c0,0.206,0.019,0.342,0.058,0.409
		c0.06,0.103,0.162,0.153,0.31,0.153c0.132,0,0.316-0.038,0.556-0.117l0.132,1.279c-0.444,0.101-0.859,0.15-1.245,0.15
		c-0.448,0-0.777-0.059-0.989-0.177c-0.212-0.119-0.368-0.298-0.47-0.539s-0.152-0.632-0.152-1.171v-1.702h-0.661v-1.357h0.661
		V62.09L123.894,61.138z"/>
	<path fill="#473D3F" d="M127.525,61.138h2v2.336h2.185v-2.336h2.008v6.677h-2.008v-2.7h-2.185v2.7h-2V61.138z"/>
	<path fill="#473D3F" d="M135.887,64.545l-1.718-0.188c0.065-0.31,0.158-0.553,0.28-0.73s0.298-0.332,0.527-0.462
		c0.165-0.095,0.392-0.167,0.68-0.22c0.289-0.051,0.601-0.076,0.936-0.076c0.539,0,0.972,0.03,1.298,0.093
		c0.326,0.062,0.599,0.191,0.816,0.389c0.153,0.137,0.273,0.331,0.362,0.581s0.132,0.49,0.132,0.717v2.137
		c0,0.228,0.014,0.405,0.042,0.534c0.028,0.13,0.089,0.295,0.183,0.494h-1.686c-0.068-0.125-0.112-0.219-0.132-0.285
		c-0.021-0.065-0.042-0.168-0.063-0.308c-0.234,0.234-0.469,0.401-0.702,0.501c-0.317,0.134-0.687,0.201-1.107,0.201
		c-0.56,0-0.983-0.134-1.273-0.401c-0.29-0.267-0.435-0.597-0.435-0.987c0-0.368,0.104-0.669,0.313-0.907
		c0.209-0.237,0.595-0.413,1.156-0.528c0.674-0.14,1.111-0.237,1.312-0.293c0.199-0.056,0.412-0.13,0.635-0.221
		c0-0.229-0.045-0.387-0.137-0.479c-0.092-0.091-0.251-0.137-0.481-0.137c-0.294,0-0.515,0.049-0.662,0.146
		C136.05,64.193,135.958,64.335,135.887,64.545z M137.445,65.52c-0.247,0.091-0.504,0.171-0.772,0.241
		c-0.364,0.1-0.596,0.199-0.692,0.296c-0.101,0.102-0.15,0.214-0.15,0.342c0,0.146,0.049,0.266,0.148,0.357
		c0.099,0.093,0.243,0.139,0.435,0.139c0.2,0,0.386-0.05,0.56-0.149c0.172-0.101,0.294-0.224,0.365-0.367
		c0.072-0.145,0.108-0.332,0.108-0.563L137.445,65.52L137.445,65.52z"/>
	<path fill="#473D3F" d="M139.283,66.472l1.783-0.173c0.074,0.218,0.177,0.375,0.309,0.469s0.31,0.142,0.53,0.142
		c0.241,0,0.428-0.054,0.561-0.159c0.104-0.079,0.154-0.177,0.154-0.296c0-0.134-0.067-0.236-0.203-0.31
		c-0.097-0.052-0.354-0.114-0.771-0.19c-0.624-0.112-1.058-0.216-1.3-0.313c-0.243-0.095-0.447-0.257-0.613-0.483
		c-0.167-0.229-0.25-0.487-0.25-0.778c0-0.319,0.09-0.593,0.269-0.824c0.181-0.229,0.428-0.403,0.742-0.517
		c0.315-0.114,0.737-0.17,1.267-0.17c0.56,0,0.973,0.044,1.238,0.132c0.267,0.088,0.488,0.225,0.667,0.41
		c0.178,0.185,0.326,0.436,0.443,0.751l-1.704,0.173c-0.044-0.155-0.118-0.27-0.221-0.341c-0.142-0.098-0.313-0.146-0.513-0.146
		c-0.202,0-0.351,0.037-0.442,0.111c-0.093,0.075-0.14,0.165-0.14,0.271c0,0.118,0.06,0.208,0.178,0.269
		c0.117,0.06,0.374,0.115,0.768,0.164c0.597,0.069,1.042,0.167,1.333,0.292s0.514,0.302,0.668,0.531
		c0.154,0.23,0.232,0.484,0.232,0.761c0,0.278-0.082,0.551-0.245,0.813c-0.164,0.265-0.421,0.475-0.772,0.63
		c-0.351,0.156-0.831,0.234-1.437,0.234c-0.856,0-1.466-0.126-1.83-0.378C139.619,67.295,139.386,66.937,139.283,66.472z"/>
	<path fill="#473D3F" d="M144.444,61.138h1.836v3.447l1.342-1.607h2.211l-1.682,1.695l1.779,3.143h-2.024l-0.95-1.938l-0.677,0.682
		v1.257h-1.836L144.444,61.138L144.444,61.138z"/>
	<path fill="#473D3F" d="M154.69,65.857h-3.603c0.032,0.297,0.11,0.52,0.234,0.665c0.174,0.209,0.4,0.314,0.68,0.314
		c0.178,0,0.345-0.045,0.503-0.136c0.098-0.059,0.202-0.16,0.313-0.306l1.77,0.168c-0.271,0.486-0.598,0.834-0.979,1.045
		c-0.383,0.211-0.933,0.316-1.646,0.316c-0.621,0-1.108-0.09-1.465-0.271c-0.355-0.181-0.65-0.468-0.885-0.86
		c-0.234-0.394-0.351-0.855-0.351-1.387c0-0.757,0.233-1.368,0.703-1.836c0.47-0.467,1.117-0.7,1.944-0.7
		c0.671,0,1.2,0.104,1.589,0.313c0.389,0.209,0.685,0.513,0.887,0.911c0.203,0.398,0.305,0.916,0.305,1.553L154.69,65.857
		L154.69,65.857z M152.863,64.969c-0.035-0.358-0.129-0.615-0.28-0.77c-0.15-0.155-0.351-0.232-0.598-0.232
		c-0.285,0-0.513,0.117-0.685,0.351c-0.108,0.146-0.178,0.363-0.208,0.651H152.863z"/>
	<path fill="#473D3F" d="M154.9,61.138h1.801v6.677H154.9V61.138z"/>
	<path fill="#473D3F" d="M157.232,61.138h1.801v6.677h-1.801V61.138z"/>
	<path fill="#473D3F" d="M161.61,65.606l1.902-0.123c0.041,0.319,0.125,0.563,0.251,0.729c0.205,0.271,0.5,0.406,0.883,0.406
		c0.285,0,0.505-0.069,0.66-0.208c0.154-0.139,0.231-0.299,0.231-0.48c0-0.173-0.074-0.328-0.221-0.464
		c-0.147-0.136-0.488-0.266-1.024-0.387c-0.877-0.204-1.502-0.475-1.876-0.812c-0.376-0.337-0.564-0.767-0.564-1.289
		c0-0.343,0.096-0.667,0.289-0.972c0.192-0.305,0.481-0.545,0.869-0.72s0.918-0.263,1.592-0.263c0.827,0,1.457,0.159,1.891,0.477
		c0.434,0.316,0.692,0.822,0.774,1.514l-1.885,0.114c-0.05-0.3-0.154-0.52-0.315-0.656c-0.16-0.137-0.382-0.205-0.664-0.205
		c-0.232,0-0.408,0.051-0.525,0.153c-0.116,0.102-0.176,0.226-0.176,0.371c0,0.105,0.048,0.202,0.146,0.287
		c0.094,0.088,0.317,0.17,0.671,0.246c0.874,0.193,1.5,0.391,1.878,0.59s0.652,0.445,0.826,0.739
		c0.172,0.296,0.258,0.624,0.258,0.988c0,0.428-0.115,0.823-0.344,1.186c-0.229,0.361-0.551,0.635-0.963,0.821
		c-0.411,0.188-0.932,0.28-1.558,0.28c-1.101,0-1.863-0.219-2.287-0.656C161.905,66.836,161.666,66.281,161.61,65.606z"/>
	<path fill="#473D3F" d="M167.755,61.138h1.797V62.4h-1.797V61.138z M167.755,62.978h1.797v4.837h-1.797V62.978z"/>
	<path fill="#473D3F" d="M172.188,61.138v1.84h0.988v1.357h-0.988v1.714c0,0.206,0.019,0.342,0.058,0.409
		c0.06,0.103,0.162,0.153,0.31,0.153c0.132,0,0.316-0.038,0.556-0.117l0.132,1.279c-0.444,0.101-0.859,0.15-1.245,0.15
		c-0.448,0-0.776-0.059-0.989-0.177c-0.212-0.119-0.368-0.298-0.47-0.539s-0.151-0.632-0.151-1.171v-1.702h-0.662v-1.357h0.662
		V62.09L172.188,61.138z"/>
	<path fill="#473D3F" d="M178.56,65.857h-3.603c0.032,0.297,0.11,0.52,0.234,0.665c0.174,0.209,0.399,0.314,0.68,0.314
		c0.177,0,0.344-0.045,0.503-0.136c0.098-0.059,0.202-0.16,0.313-0.306l1.77,0.168c-0.271,0.486-0.598,0.834-0.979,1.045
		c-0.383,0.211-0.933,0.316-1.646,0.316c-0.621,0-1.108-0.09-1.465-0.271c-0.355-0.181-0.651-0.468-0.885-0.86
		c-0.234-0.394-0.352-0.855-0.352-1.387c0-0.757,0.234-1.368,0.704-1.836c0.47-0.467,1.117-0.7,1.944-0.7
		c0.671,0,1.2,0.104,1.589,0.313c0.388,0.209,0.685,0.513,0.887,0.911c0.203,0.398,0.305,0.916,0.305,1.553L178.56,65.857
		L178.56,65.857z M176.732,64.969c-0.035-0.358-0.129-0.615-0.28-0.77c-0.151-0.155-0.351-0.232-0.598-0.232
		c-0.285,0-0.514,0.117-0.685,0.351c-0.108,0.146-0.178,0.363-0.208,0.651H176.732z"/>
	<path fill="#473D3F" d="M180.51,61.138h2.222l1.304,2.252l1.306-2.252h2.209l-2.516,3.881v2.796h-2.004v-2.796L180.51,61.138z"/>
	<path fill="#473D3F" d="M186.409,65.411c0-0.738,0.241-1.347,0.724-1.824c0.483-0.479,1.136-0.717,1.956-0.717
		c0.938,0,1.648,0.28,2.127,0.842c0.386,0.453,0.578,1.01,0.578,1.672c0,0.744-0.238,1.354-0.717,1.829
		c-0.478,0.475-1.14,0.713-1.984,0.713c-0.753,0-1.361-0.197-1.826-0.592C186.694,66.844,186.409,66.203,186.409,65.411z
		 M188.209,65.406c0,0.432,0.084,0.75,0.254,0.956c0.169,0.207,0.383,0.311,0.639,0.311c0.259,0,0.472-0.103,0.638-0.305
		c0.167-0.204,0.25-0.53,0.25-0.979c0-0.419-0.084-0.73-0.251-0.936c-0.168-0.205-0.375-0.308-0.623-0.308
		c-0.262,0-0.478,0.104-0.649,0.313C188.295,64.665,188.209,64.981,188.209,65.406z"/>
	<path fill="#473D3F" d="M196.919,67.815h-1.677v-0.782c-0.25,0.321-0.502,0.551-0.757,0.688s-0.567,0.205-0.938,0.205
		c-0.495,0-0.882-0.153-1.163-0.458c-0.28-0.305-0.421-0.775-0.421-1.41v-3.079h1.806v2.66c0,0.304,0.054,0.521,0.163,0.647
		c0.108,0.127,0.262,0.19,0.459,0.19c0.215,0,0.391-0.085,0.527-0.255c0.138-0.17,0.205-0.475,0.205-0.916v-2.328h1.796V67.815
		L196.919,67.815z"/>
	<path fill="#473D3F" d="M197.098,61.024h1.92v1.526c0,0.562-0.113,1.006-0.34,1.332c-0.228,0.327-0.614,0.613-1.161,0.858
		l-0.419-0.812c0.341-0.164,0.575-0.327,0.703-0.49c0.129-0.162,0.199-0.354,0.215-0.576h-0.918V61.024z"/>
	<path fill="#473D3F" d="M198.79,62.978h1.869l0.91,3.065l0.943-3.065h1.813l-1.992,4.837h-1.594L198.79,62.978z"/>
	<path fill="#473D3F" d="M209.133,65.857h-3.602c0.032,0.297,0.11,0.52,0.234,0.665c0.174,0.209,0.399,0.314,0.68,0.314
		c0.177,0,0.344-0.045,0.503-0.136c0.097-0.059,0.202-0.16,0.313-0.306l1.771,0.168c-0.271,0.486-0.598,0.834-0.98,1.045
		s-0.932,0.316-1.646,0.316c-0.621,0-1.109-0.09-1.465-0.271c-0.356-0.181-0.651-0.468-0.885-0.86
		c-0.234-0.394-0.352-0.855-0.352-1.387c0-0.757,0.234-1.368,0.704-1.836c0.469-0.467,1.117-0.7,1.944-0.7
		c0.671,0,1.199,0.104,1.589,0.313c0.388,0.209,0.684,0.513,0.887,0.911s0.304,0.916,0.304,1.553L209.133,65.857L209.133,65.857z
		 M207.306,64.969c-0.035-0.358-0.13-0.615-0.28-0.77c-0.151-0.155-0.352-0.232-0.598-0.232c-0.285,0-0.514,0.117-0.685,0.351
		c-0.109,0.146-0.178,0.363-0.208,0.651H207.306z"/>
	<path fill="#473D3F" d="M211.741,61.138h3.743c0.624,0,1.103,0.159,1.437,0.479c0.334,0.318,0.501,0.714,0.501,1.185
		c0,0.395-0.118,0.733-0.356,1.016c-0.159,0.188-0.393,0.337-0.698,0.446c0.465,0.115,0.807,0.313,1.026,0.594
		c0.219,0.281,0.329,0.635,0.329,1.06c0,0.346-0.078,0.658-0.234,0.934c-0.156,0.276-0.369,0.495-0.64,0.656
		c-0.168,0.1-0.422,0.173-0.76,0.218c-0.449,0.062-0.749,0.091-0.896,0.091h-3.452V61.138L211.741,61.138z M213.758,63.757h0.87
		c0.313,0,0.529-0.056,0.651-0.167s0.183-0.271,0.183-0.48c0-0.193-0.061-0.346-0.183-0.456c-0.122-0.109-0.334-0.163-0.638-0.163
		h-0.884V63.757z M213.758,66.381h1.021c0.344,0,0.587-0.063,0.729-0.189s0.213-0.295,0.213-0.508c0-0.197-0.07-0.355-0.211-0.476
		c-0.14-0.12-0.385-0.181-0.734-0.181h-1.016L213.758,66.381L213.758,66.381z"/>
	<path fill="#473D3F" d="M223.174,65.857h-3.602c0.032,0.297,0.11,0.52,0.234,0.665c0.174,0.209,0.399,0.314,0.68,0.314
		c0.177,0,0.344-0.045,0.503-0.136c0.097-0.059,0.202-0.16,0.313-0.306l1.771,0.168c-0.271,0.486-0.598,0.834-0.98,1.045
		s-0.932,0.316-1.646,0.316c-0.621,0-1.109-0.09-1.465-0.271c-0.356-0.181-0.651-0.468-0.885-0.86
		c-0.234-0.394-0.352-0.855-0.352-1.387c0-0.757,0.234-1.368,0.704-1.836c0.469-0.467,1.117-0.7,1.944-0.7
		c0.671,0,1.199,0.104,1.589,0.313c0.388,0.209,0.684,0.513,0.887,0.911s0.304,0.916,0.304,1.553L223.174,65.857L223.174,65.857z
		 M221.347,64.969c-0.035-0.358-0.13-0.615-0.28-0.77c-0.151-0.155-0.352-0.232-0.599-0.232c-0.284,0-0.513,0.117-0.684,0.351
		c-0.109,0.146-0.178,0.363-0.208,0.651H221.347z"/>
	<path fill="#473D3F" d="M228.526,65.857h-3.603c0.032,0.297,0.11,0.52,0.234,0.665c0.174,0.209,0.4,0.314,0.68,0.314
		c0.178,0,0.345-0.045,0.503-0.136c0.098-0.059,0.202-0.16,0.313-0.306l1.77,0.168c-0.271,0.486-0.598,0.834-0.979,1.045
		c-0.383,0.211-0.932,0.316-1.646,0.316c-0.621,0-1.108-0.09-1.465-0.271c-0.355-0.181-0.65-0.468-0.885-0.86
		c-0.234-0.394-0.351-0.855-0.351-1.387c0-0.757,0.233-1.368,0.703-1.836c0.47-0.467,1.117-0.7,1.944-0.7
		c0.671,0,1.2,0.104,1.589,0.313c0.389,0.209,0.685,0.513,0.888,0.911c0.202,0.398,0.304,0.916,0.304,1.553L228.526,65.857
		L228.526,65.857z M226.699,64.969c-0.035-0.358-0.129-0.615-0.28-0.77c-0.15-0.155-0.351-0.232-0.598-0.232
		c-0.285,0-0.513,0.117-0.684,0.351c-0.109,0.146-0.179,0.363-0.208,0.651H226.699z"/>
	<path fill="#473D3F" d="M228.673,62.978h1.674v0.788c0.25-0.322,0.503-0.552,0.759-0.689c0.256-0.139,0.567-0.207,0.936-0.207
		c0.497,0,0.887,0.151,1.167,0.458c0.281,0.305,0.421,0.776,0.421,1.414v3.074h-1.805v-2.659c0-0.304-0.054-0.519-0.163-0.646
		c-0.108-0.126-0.262-0.188-0.459-0.188c-0.218,0-0.395,0.085-0.53,0.255c-0.135,0.17-0.202,0.475-0.202,0.916v2.322h-1.797V62.978
		L228.673,62.978z"/>
	<path fill="#473D3F" d="M236.48,61.138h2v5.033h3.121v1.644h-5.12L236.48,61.138L236.48,61.138z"/>
	<path fill="#473D3F" d="M241.492,65.411c0-0.738,0.241-1.347,0.724-1.824c0.483-0.479,1.136-0.717,1.956-0.717
		c0.938,0,1.648,0.28,2.127,0.842c0.386,0.453,0.578,1.01,0.578,1.672c0,0.744-0.238,1.354-0.717,1.829
		c-0.478,0.475-1.14,0.713-1.984,0.713c-0.753,0-1.361-0.197-1.826-0.592C241.777,66.844,241.492,66.203,241.492,65.411z
		 M243.293,65.406c0,0.432,0.084,0.75,0.254,0.956c0.169,0.207,0.383,0.311,0.639,0.311c0.259,0,0.472-0.103,0.638-0.305
		c0.167-0.204,0.25-0.53,0.25-0.979c0-0.419-0.084-0.73-0.251-0.936c-0.168-0.205-0.375-0.308-0.623-0.308
		c-0.262,0-0.478,0.104-0.649,0.313C243.378,64.665,243.293,64.981,243.293,65.406z"/>
	<path fill="#473D3F" d="M246.844,65.411c0-0.738,0.241-1.347,0.725-1.824c0.482-0.479,1.135-0.717,1.956-0.717
		c0.938,0,1.647,0.28,2.127,0.842c0.385,0.453,0.578,1.01,0.578,1.672c0,0.744-0.239,1.354-0.717,1.829
		c-0.479,0.475-1.141,0.713-1.984,0.713c-0.753,0-1.362-0.197-1.827-0.592C247.129,66.844,246.844,66.203,246.844,65.411z
		 M248.645,65.406c0,0.432,0.084,0.75,0.254,0.956c0.169,0.207,0.382,0.311,0.638,0.311c0.259,0,0.472-0.103,0.638-0.305
		c0.167-0.204,0.25-0.53,0.25-0.979c0-0.419-0.084-0.73-0.251-0.936c-0.168-0.205-0.375-0.308-0.623-0.308
		c-0.262,0-0.478,0.104-0.648,0.313C248.73,64.665,248.645,64.981,248.645,65.406z"/>
	<path fill="#473D3F" d="M252.416,61.138h1.836v3.447l1.342-1.607h2.212l-1.683,1.695l1.779,3.143h-2.024l-0.95-1.938l-0.677,0.682
		v1.257h-1.836L252.416,61.138L252.416,61.138z"/>
	<path fill="#473D3F" d="M257.833,61.138h1.797V62.4h-1.797V61.138z M257.833,62.978h1.797v4.837h-1.797V62.978z"/>
	<path fill="#473D3F" d="M260.099,62.978h1.673v0.788c0.25-0.322,0.503-0.552,0.759-0.689c0.256-0.139,0.568-0.207,0.936-0.207
		c0.497,0,0.887,0.151,1.167,0.458c0.281,0.305,0.422,0.776,0.422,1.414v3.074h-1.806v-2.659c0-0.304-0.054-0.519-0.163-0.646
		c-0.108-0.126-0.262-0.188-0.459-0.188c-0.218,0-0.395,0.085-0.529,0.255c-0.136,0.17-0.203,0.475-0.203,0.916v2.322h-1.796V62.978
		z"/>
	<path fill="#473D3F" d="M268.712,62.978h1.683v4.569l0.004,0.214c0,0.304-0.063,0.593-0.188,0.868
		c-0.125,0.274-0.292,0.497-0.499,0.667c-0.208,0.17-0.471,0.293-0.791,0.369c-0.318,0.076-0.685,0.113-1.097,0.113
		c-0.941,0-1.588-0.146-1.94-0.437c-0.352-0.291-0.526-0.682-0.526-1.17c0-0.062,0.003-0.144,0.009-0.246l1.744,0.205
		c0.044,0.167,0.112,0.282,0.203,0.346c0.132,0.094,0.298,0.142,0.499,0.142c0.259,0,0.453-0.071,0.581-0.215
		c0.128-0.143,0.191-0.392,0.191-0.746v-0.733c-0.177,0.215-0.353,0.372-0.529,0.469c-0.276,0.152-0.575,0.229-0.896,0.229
		c-0.626,0-1.133-0.282-1.518-0.848c-0.274-0.4-0.411-0.931-0.411-1.59c0-0.753,0.176-1.327,0.529-1.722
		c0.354-0.396,0.815-0.592,1.387-0.592c0.364,0,0.666,0.063,0.902,0.19c0.237,0.128,0.458,0.339,0.664,0.633V62.978z
		 M267.022,65.324c0,0.35,0.071,0.607,0.216,0.776c0.144,0.169,0.334,0.253,0.569,0.253c0.224,0,0.41-0.087,0.563-0.262
		c0.151-0.174,0.228-0.438,0.228-0.79s-0.08-0.622-0.238-0.809c-0.159-0.188-0.354-0.28-0.583-0.28c-0.23,0-0.413,0.086-0.55,0.257
		C267.09,64.642,267.022,64.926,267.022,65.324z"/>
	<path fill="#473D3F" d="M273.267,61.138h4.942v1.436h-2.935v1.166h2.507v1.348h-2.507v2.729h-2.008V61.138z"/>
	<path fill="#473D3F" d="M277.96,65.411c0-0.738,0.241-1.347,0.725-1.824c0.482-0.479,1.135-0.717,1.956-0.717
		c0.938,0,1.647,0.28,2.127,0.842c0.385,0.453,0.578,1.01,0.578,1.672c0,0.744-0.239,1.354-0.718,1.829
		c-0.478,0.475-1.14,0.713-1.983,0.713c-0.753,0-1.362-0.197-1.827-0.592C278.245,66.844,277.96,66.203,277.96,65.411z
		 M279.76,65.406c0,0.432,0.085,0.75,0.255,0.956c0.169,0.207,0.382,0.311,0.638,0.311c0.259,0,0.472-0.103,0.638-0.305
		c0.167-0.204,0.25-0.53,0.25-0.979c0-0.419-0.084-0.73-0.251-0.936c-0.168-0.205-0.375-0.308-0.623-0.308
		c-0.262,0-0.478,0.104-0.648,0.313C279.846,64.665,279.76,64.981,279.76,65.406z"/>
	<path fill="#473D3F" d="M283.55,62.978h1.683v0.793c0.162-0.343,0.329-0.58,0.501-0.708c0.172-0.129,0.385-0.192,0.638-0.192
		c0.266,0,0.555,0.085,0.87,0.255l-0.556,1.32c-0.212-0.091-0.379-0.137-0.503-0.137c-0.236,0-0.418,0.102-0.548,0.301
		c-0.186,0.282-0.277,0.812-0.277,1.585v1.622h-1.806v-4.839H283.55z"/>
</g>
</svg>
