<?xml version="1.0" encoding="utf-8"?>
<!-- Generator: Adobe Illustrator 15.0.0, SVG Export Plug-In . SVG Version: 6.00 Build 0)  -->
<!DOCTYPE svg PUBLIC "-//W3C//DTD SVG 1.1//EN" "http://www.w3.org/Graphics/SVG/1.1/DTD/svg11.dtd">
<svg version="1.1" id="Layer_1" xmlns="http://www.w3.org/2000/svg" xmlns:xlink="http://www.w3.org/1999/xlink" x="0px" y="0px"
	 width="367.141px" height="84.73px" viewBox="0 0 367.141 84.73" enable-background="new 0 0 367.141 84.73" xml:space="preserve">
<path fill="#333333" d="M50.444,42.313L24.122,15.99c-5.766,7.237-9.212,16.402-9.212,26.375c0,9.944,3.428,19.089,9.165,26.315
	L50.444,42.313z"/>
<path fill="#333333" d="M90.504,68.646c5.721-7.224,9.138-16.353,9.138-26.28C99.641,18.967,80.673,0,57.274,0
	c-9.928,0-19.06,3.417-26.28,9.138L90.504,68.646z"/>
<path fill="#333333" d="M57.307,49.176L30.935,75.547c7.231,5.748,16.384,9.186,26.34,9.186c9.974,0,19.14-3.446,26.376-9.213
	L57.307,49.176z"/>
<path fill="#FFFFFF" d="M57.274,42.163"/>
<path fill="#FFFFFF" d="M57.209,42.431"/>
<rect x="0" y="0.801" fill="#333333" width="10.284" height="10.284"/>
<rect x="0" y="73.646" fill="#333333" width="10.284" height="10.284"/>
<rect x="0" y="37.224" fill="#333333" width="10.284" height="10.283"/>
<path fill="#FFFFFF" d="M104.978,19.372h11.556v13.085h12.626V19.372h11.604v37.394h-11.604V41.639h-12.626v15.125h-11.556V19.372z"
	/>
<path fill="#FFFFFF" d="M153.298,38.451l-9.922-1.046c0.374-1.734,0.914-3.1,1.62-4.095s1.722-1.856,3.048-2.589
	c0.952-0.527,2.262-0.936,3.929-1.226c1.667-0.289,3.469-0.435,5.407-0.435c3.112,0,5.611,0.175,7.499,0.522
	c1.888,0.349,3.46,1.076,4.72,2.182c0.884,0.766,1.582,1.85,2.091,3.252c0.511,1.402,0.766,2.741,0.766,4.019V51
	c0,1.274,0.081,2.273,0.243,2.997c0.16,0.723,0.514,1.646,1.059,2.769h-9.743c-0.393-0.697-0.646-1.229-0.767-1.595
	c-0.119-0.364-0.238-0.938-0.356-1.722c-1.359,1.31-2.713,2.244-4.057,2.806c-1.836,0.748-3.972,1.123-6.401,1.123
	c-3.23,0-5.685-0.748-7.358-2.245c-1.676-1.495-2.514-3.341-2.514-5.534c0-2.058,0.604-3.75,1.812-5.076
	c1.208-1.327,3.436-2.313,6.684-2.959c3.895-0.781,6.419-1.33,7.574-1.646c1.156-0.313,2.381-0.728,3.673-1.236
	c0-1.274-0.264-2.168-0.791-2.679c-0.526-0.51-1.453-0.766-2.779-0.766c-1.699,0-2.977,0.271-3.825,0.815
	C154.241,36.479,153.706,37.277,153.298,38.451z M162.302,43.909c-1.429,0.51-2.917,0.961-4.464,1.352
	c-2.108,0.563-3.442,1.114-4.004,1.658c-0.579,0.562-0.867,1.199-0.867,1.913c0,0.815,0.284,1.483,0.854,2.002
	c0.57,0.519,1.407,0.777,2.514,0.777c1.156,0,2.231-0.28,3.228-0.842c0.995-0.562,1.7-1.246,2.117-2.054s0.625-1.857,0.625-3.149
	v-1.657H162.302z"/>
<path fill="#FFFFFF" d="M172.923,49.24l10.306-0.97c0.425,1.225,1.021,2.101,1.786,2.627s1.785,0.791,3.062,0.791
	c1.394,0,2.474-0.297,3.238-0.893c0.596-0.44,0.894-0.993,0.894-1.654c0-0.747-0.392-1.324-1.173-1.731
	c-0.562-0.289-2.05-0.646-4.464-1.07c-3.604-0.628-6.108-1.21-7.512-1.744c-1.402-0.535-2.585-1.438-3.545-2.715
	c-0.961-1.273-1.44-2.728-1.44-4.356c0-1.783,0.519-3.32,1.556-4.611s2.467-2.255,4.285-2.893s4.26-0.956,7.32-0.956
	c3.229,0,5.615,0.247,7.154,0.74s2.822,1.259,3.853,2.296c1.029,1.037,1.883,2.439,2.563,4.208l-9.847,0.969
	c-0.255-0.866-0.681-1.505-1.274-1.912c-0.815-0.545-1.804-0.816-2.959-0.816c-1.173,0-2.027,0.208-2.563,0.624
	s-0.804,0.921-0.804,1.516c0,0.663,0.341,1.163,1.021,1.502c0.681,0.34,2.159,0.646,4.438,0.917
	c3.452,0.392,6.021,0.936,7.703,1.631c1.685,0.697,2.973,1.689,3.863,2.98c0.894,1.291,1.34,2.709,1.34,4.256
	c0,1.563-0.473,3.084-1.416,4.563s-2.433,2.653-4.464,3.528c-2.032,0.875-4.801,1.313-8.303,1.313
	c-4.949,0-8.474-0.706-10.572-2.117C174.865,53.849,173.518,51.842,172.923,49.24z"/>
<path fill="#FFFFFF" d="M202.75,19.372h10.61v19.301l7.755-8.997h12.778l-9.719,9.489l10.279,17.6h-11.697l-5.485-10.858
	l-3.911,3.818v7.04h-10.61V19.372z"/>
<path fill="#FFFFFF" d="M261.962,45.797h-20.813c0.188,1.667,0.639,2.908,1.353,3.725c1.003,1.173,2.313,1.761,3.929,1.761
	c1.021,0,1.989-0.256,2.907-0.766c0.562-0.323,1.165-0.894,1.812-1.709l10.229,0.943c-1.564,2.722-3.453,4.672-5.663,5.854
	c-2.211,1.183-5.382,1.772-9.514,1.772c-3.589,0-6.411-0.506-8.469-1.519c-2.059-1.012-3.762-2.618-5.113-4.82
	c-1.353-2.202-2.028-4.791-2.028-7.768c0-4.233,1.355-7.661,4.068-10.278c2.712-2.618,6.458-3.929,11.235-3.929
	c3.877,0,6.938,0.587,9.184,1.761c2.245,1.173,3.954,2.874,5.127,5.101c1.173,2.229,1.76,5.127,1.76,8.698v1.173H261.962z
	 M251.402,40.823c-0.203-2.007-0.743-3.443-1.619-4.313c-0.876-0.868-2.028-1.301-3.456-1.301c-1.649,0-2.969,0.655-3.954,1.964
	c-0.629,0.816-1.029,2.032-1.199,3.647L251.402,40.823L251.402,40.823z"/>
<path fill="#FFFFFF" d="M263.171,19.372h10.407v37.394h-10.407V19.372z"/>
<path fill="#FFFFFF" d="M276.649,19.372h10.407v37.394h-10.407V19.372z"/>
<path fill="#333333" d="M290.407,19.372h19.207c4.183,0,7.314,0.995,9.398,2.983c2.082,1.988,3.124,4.82,3.124,8.494
	c0,3.774-1.136,6.727-3.405,8.852c-2.271,2.125-5.733,3.188-10.395,3.188h-6.324v13.876h-11.605V19.372L290.407,19.372z
	 M302.014,35.313h2.829c2.229,0,3.794-0.388,4.693-1.161c0.9-0.772,1.353-1.764,1.353-2.972c0-1.174-0.392-2.168-1.174-2.984
	c-0.781-0.815-2.253-1.224-4.413-1.224h-3.288V35.313L302.014,35.313z"/>
<path fill="#333333" d="M323.959,19.372h10.382v7.064h-10.382V19.372z M323.959,29.676h10.382v27.089h-10.382V29.676z"/>
<path fill="#333333" d="M367.127,45.797h-20.813c0.188,1.667,0.639,2.908,1.353,3.725c1.003,1.173,2.313,1.761,3.93,1.761
	c1.021,0,1.988-0.256,2.906-0.766c0.563-0.323,1.165-0.894,1.813-1.709l10.229,0.943c-1.564,2.722-3.453,4.672-5.663,5.854
	c-2.211,1.183-5.382,1.772-9.515,1.772c-3.589,0-6.41-0.506-8.469-1.519c-2.059-1.012-3.764-2.618-5.113-4.82
	c-1.351-2.202-2.027-4.791-2.027-7.768c0-4.233,1.354-7.661,4.068-10.278c2.711-2.618,6.457-3.929,11.234-3.929
	c3.877,0,6.938,0.587,9.184,1.761c2.244,1.173,3.952,2.874,5.127,5.101c1.174,2.229,1.76,5.127,1.76,8.698v1.173H367.127z
	 M356.566,40.823c-0.203-2.007-0.742-3.443-1.618-4.313c-0.876-0.868-2.027-1.301-3.456-1.301c-1.649,0-2.969,0.655-3.954,1.964
	c-0.629,0.816-1.028,2.032-1.198,3.647L356.566,40.823L356.566,40.823z"/>
<g>
	<path fill="#333333" d="M104.75,61.138h6.078v1.648h-2.039v5.027h-2v-5.027h-2.039V61.138z"/>
	<path fill="#333333" d="M111.178,61.138h1.796v2.459c0.243-0.262,0.486-0.448,0.729-0.561c0.241-0.112,0.526-0.168,0.855-0.168
		c0.487,0,0.873,0.152,1.153,0.46c0.281,0.307,0.421,0.776,0.421,1.412v3.074h-1.805v-2.659c0-0.304-0.055-0.519-0.163-0.646
		c-0.108-0.126-0.263-0.188-0.459-0.188c-0.219,0-0.396,0.085-0.53,0.255s-0.202,0.475-0.202,0.916v2.322h-1.797v-6.679h0.002
		V61.138z"/>
	<path fill="#333333" d="M118.167,64.545l-1.717-0.188c0.064-0.311,0.157-0.553,0.279-0.73c0.122-0.177,0.298-0.332,0.526-0.462
		c0.165-0.095,0.393-0.167,0.681-0.22c0.289-0.051,0.602-0.076,0.937-0.076c0.539,0,0.971,0.03,1.297,0.093
		c0.327,0.063,0.6,0.191,0.816,0.39c0.153,0.137,0.272,0.331,0.362,0.581c0.089,0.25,0.132,0.489,0.132,0.717v2.137
		c0,0.229,0.015,0.405,0.042,0.534c0.027,0.13,0.089,0.295,0.184,0.494h-1.687c-0.067-0.125-0.111-0.22-0.132-0.285
		s-0.042-0.168-0.063-0.308c-0.235,0.233-0.47,0.4-0.702,0.501c-0.317,0.134-0.688,0.2-1.107,0.2c-0.56,0-0.982-0.134-1.272-0.4
		c-0.29-0.268-0.436-0.598-0.436-0.987c0-0.368,0.104-0.669,0.313-0.907c0.209-0.236,0.594-0.413,1.155-0.527
		c0.675-0.141,1.111-0.237,1.312-0.293c0.2-0.057,0.412-0.131,0.636-0.222c0-0.229-0.045-0.387-0.138-0.479
		c-0.091-0.091-0.251-0.138-0.48-0.138c-0.294,0-0.516,0.05-0.662,0.146C118.331,64.193,118.238,64.335,118.167,64.545z
		 M119.725,65.52c-0.247,0.091-0.504,0.171-0.771,0.24c-0.365,0.101-0.597,0.199-0.693,0.297c-0.1,0.102-0.149,0.214-0.149,0.342
		c0,0.146,0.05,0.266,0.147,0.356c0.1,0.094,0.243,0.14,0.436,0.14c0.2,0,0.387-0.051,0.56-0.149
		c0.172-0.101,0.294-0.224,0.366-0.367c0.071-0.145,0.107-0.332,0.107-0.563L119.725,65.52L119.725,65.52z"/>
	<path fill="#333333" d="M123.894,61.138v1.84h0.988v1.356h-0.988v1.714c0,0.206,0.02,0.343,0.059,0.409
		c0.06,0.104,0.161,0.153,0.31,0.153c0.132,0,0.316-0.038,0.556-0.117l0.133,1.279c-0.444,0.101-0.859,0.149-1.245,0.149
		c-0.448,0-0.777-0.059-0.989-0.177c-0.212-0.119-0.368-0.298-0.47-0.539c-0.103-0.241-0.152-0.632-0.152-1.171v-1.702h-0.661
		v-1.356h0.661V62.09L123.894,61.138z"/>
	<path fill="#333333" d="M127.525,61.138h2v2.336h2.186v-2.336h2.008v6.677h-2.008v-2.7h-2.186v2.7h-2V61.138z"/>
	<path fill="#333333" d="M135.887,64.545l-1.718-0.188c0.064-0.311,0.158-0.553,0.28-0.73c0.121-0.177,0.298-0.332,0.526-0.462
		c0.165-0.095,0.393-0.167,0.68-0.22c0.289-0.051,0.602-0.076,0.937-0.076c0.539,0,0.972,0.03,1.298,0.093s0.599,0.191,0.816,0.39
		c0.152,0.137,0.272,0.331,0.361,0.581c0.09,0.25,0.133,0.489,0.133,0.717v2.137c0,0.229,0.014,0.405,0.042,0.534
		c0.027,0.13,0.089,0.295,0.183,0.494h-1.687c-0.067-0.125-0.111-0.22-0.132-0.285s-0.042-0.168-0.063-0.308
		c-0.234,0.233-0.469,0.4-0.702,0.501c-0.317,0.134-0.688,0.2-1.107,0.2c-0.56,0-0.982-0.134-1.272-0.4
		c-0.29-0.268-0.436-0.598-0.436-0.987c0-0.368,0.104-0.669,0.313-0.907c0.209-0.236,0.595-0.413,1.156-0.527
		c0.674-0.141,1.11-0.237,1.312-0.293c0.199-0.057,0.412-0.131,0.635-0.222c0-0.229-0.045-0.387-0.137-0.479
		c-0.092-0.091-0.251-0.138-0.48-0.138c-0.295,0-0.516,0.05-0.662,0.146C136.05,64.193,135.958,64.335,135.887,64.545z
		 M137.445,65.52c-0.246,0.091-0.504,0.171-0.771,0.24c-0.364,0.101-0.596,0.199-0.692,0.297c-0.101,0.102-0.149,0.214-0.149,0.342
		c0,0.146,0.049,0.266,0.147,0.356c0.1,0.094,0.243,0.14,0.436,0.14c0.199,0,0.386-0.051,0.56-0.149
		c0.172-0.101,0.294-0.224,0.365-0.367c0.072-0.145,0.107-0.332,0.107-0.563L137.445,65.52L137.445,65.52z"/>
	<path fill="#333333" d="M139.283,66.472l1.782-0.174c0.074,0.219,0.178,0.375,0.31,0.47c0.132,0.094,0.31,0.142,0.529,0.142
		c0.241,0,0.429-0.054,0.562-0.159c0.104-0.079,0.154-0.177,0.154-0.296c0-0.134-0.067-0.236-0.203-0.31
		c-0.098-0.053-0.354-0.114-0.771-0.19c-0.624-0.112-1.058-0.216-1.3-0.313c-0.243-0.096-0.447-0.258-0.613-0.483
		c-0.167-0.229-0.25-0.487-0.25-0.778c0-0.318,0.091-0.593,0.27-0.823c0.181-0.229,0.428-0.403,0.742-0.518s0.736-0.17,1.267-0.17
		c0.56,0,0.973,0.044,1.238,0.132c0.267,0.088,0.487,0.226,0.667,0.41c0.178,0.186,0.326,0.437,0.442,0.751l-1.703,0.173
		c-0.045-0.154-0.118-0.27-0.222-0.341c-0.142-0.098-0.313-0.146-0.513-0.146c-0.202,0-0.352,0.036-0.442,0.11
		c-0.093,0.075-0.14,0.165-0.14,0.271c0,0.118,0.06,0.208,0.178,0.269c0.117,0.061,0.374,0.115,0.769,0.164
		c0.597,0.069,1.042,0.167,1.333,0.292s0.514,0.302,0.668,0.531c0.153,0.229,0.231,0.484,0.231,0.761
		c0,0.278-0.082,0.551-0.245,0.813c-0.164,0.265-0.421,0.475-0.771,0.63c-0.352,0.156-0.831,0.233-1.438,0.233
		c-0.855,0-1.466-0.126-1.83-0.378S139.386,66.937,139.283,66.472z"/>
	<path fill="#333333" d="M144.444,61.138h1.836v3.446l1.343-1.606h2.211l-1.683,1.694l1.779,3.144h-2.024l-0.949-1.938l-0.678,0.683
		v1.257h-1.836L144.444,61.138L144.444,61.138z"/>
	<path fill="#333333" d="M154.69,65.857h-3.603c0.032,0.297,0.109,0.52,0.233,0.665c0.175,0.209,0.4,0.313,0.681,0.313
		c0.178,0,0.345-0.045,0.503-0.136c0.098-0.059,0.202-0.16,0.313-0.306l1.771,0.168c-0.271,0.485-0.599,0.834-0.979,1.045
		c-0.383,0.211-0.933,0.315-1.646,0.315c-0.621,0-1.108-0.09-1.465-0.271c-0.355-0.181-0.65-0.468-0.886-0.86
		c-0.233-0.394-0.351-0.854-0.351-1.387c0-0.757,0.233-1.368,0.703-1.836c0.47-0.467,1.117-0.7,1.944-0.7
		c0.671,0,1.199,0.104,1.589,0.313c0.389,0.209,0.685,0.513,0.887,0.91c0.203,0.398,0.305,0.916,0.305,1.554L154.69,65.857
		L154.69,65.857z M152.863,64.969c-0.034-0.357-0.129-0.614-0.279-0.77s-0.352-0.232-0.599-0.232c-0.284,0-0.513,0.117-0.685,0.352
		c-0.108,0.146-0.178,0.363-0.208,0.65H152.863z"/>
	<path fill="#333333" d="M154.9,61.138h1.802v6.677H154.9V61.138z"/>
	<path fill="#333333" d="M157.232,61.138h1.802v6.677h-1.802V61.138z"/>
	<path fill="#333333" d="M161.61,65.606l1.902-0.123c0.041,0.318,0.125,0.563,0.251,0.729c0.205,0.271,0.5,0.406,0.883,0.406
		c0.285,0,0.505-0.069,0.66-0.208c0.154-0.139,0.231-0.299,0.231-0.479c0-0.174-0.074-0.328-0.222-0.465
		c-0.146-0.136-0.487-0.266-1.023-0.387c-0.877-0.204-1.502-0.475-1.876-0.812c-0.376-0.337-0.564-0.768-0.564-1.289
		c0-0.344,0.097-0.667,0.289-0.973c0.192-0.305,0.481-0.545,0.869-0.72s0.918-0.263,1.592-0.263c0.827,0,1.457,0.159,1.892,0.477
		c0.434,0.316,0.691,0.822,0.773,1.515l-1.885,0.113c-0.05-0.3-0.154-0.52-0.315-0.655c-0.159-0.138-0.382-0.205-0.664-0.205
		c-0.231,0-0.407,0.051-0.524,0.152c-0.116,0.103-0.176,0.227-0.176,0.371c0,0.105,0.048,0.202,0.146,0.287
		c0.094,0.088,0.317,0.17,0.671,0.246c0.874,0.193,1.5,0.391,1.878,0.59s0.652,0.445,0.826,0.739
		c0.172,0.296,0.258,0.624,0.258,0.988c0,0.428-0.114,0.822-0.344,1.186c-0.229,0.361-0.551,0.635-0.963,0.821
		c-0.411,0.188-0.932,0.279-1.558,0.279c-1.102,0-1.863-0.219-2.287-0.655C161.905,66.836,161.666,66.281,161.61,65.606z"/>
	<path fill="#333333" d="M167.755,61.138h1.797V62.4h-1.797V61.138z M167.755,62.978h1.797v4.837h-1.797V62.978z"/>
	<path fill="#333333" d="M172.188,61.138v1.84h0.988v1.356h-0.988v1.714c0,0.206,0.02,0.343,0.059,0.409
		c0.06,0.104,0.162,0.153,0.31,0.153c0.132,0,0.316-0.038,0.556-0.117l0.133,1.279c-0.444,0.101-0.859,0.149-1.245,0.149
		c-0.448,0-0.776-0.059-0.989-0.177c-0.212-0.119-0.368-0.298-0.47-0.539c-0.103-0.241-0.151-0.632-0.151-1.171v-1.702h-0.662
		v-1.356h0.662V62.09L172.188,61.138z"/>
	<path fill="#333333" d="M178.56,65.857h-3.603c0.031,0.297,0.109,0.52,0.233,0.665c0.175,0.209,0.399,0.313,0.681,0.313
		c0.177,0,0.344-0.045,0.503-0.136c0.098-0.059,0.202-0.16,0.313-0.306l1.771,0.168c-0.271,0.485-0.599,0.834-0.979,1.045
		c-0.383,0.211-0.933,0.315-1.646,0.315c-0.621,0-1.108-0.09-1.465-0.271c-0.355-0.181-0.651-0.468-0.886-0.86
		c-0.233-0.394-0.352-0.854-0.352-1.387c0-0.757,0.233-1.368,0.704-1.836c0.47-0.467,1.117-0.7,1.943-0.7
		c0.672,0,1.2,0.104,1.59,0.313c0.388,0.209,0.685,0.513,0.887,0.91c0.203,0.398,0.305,0.916,0.305,1.554L178.56,65.857
		L178.56,65.857z M176.732,64.969c-0.035-0.357-0.129-0.614-0.279-0.77c-0.151-0.155-0.352-0.232-0.599-0.232
		c-0.285,0-0.514,0.117-0.685,0.352c-0.108,0.146-0.178,0.363-0.208,0.65H176.732z"/>
	<path fill="#333333" d="M180.51,61.138h2.222l1.305,2.252l1.306-2.252h2.209l-2.516,3.881v2.796h-2.005v-2.796L180.51,61.138z"/>
	<path fill="#333333" d="M186.409,65.411c0-0.738,0.24-1.347,0.724-1.824c0.483-0.479,1.136-0.717,1.956-0.717
		c0.938,0,1.647,0.28,2.127,0.842c0.386,0.453,0.578,1.011,0.578,1.672c0,0.744-0.238,1.354-0.717,1.829
		c-0.479,0.476-1.141,0.713-1.984,0.713c-0.753,0-1.361-0.196-1.826-0.592C186.694,66.844,186.409,66.203,186.409,65.411z
		 M188.209,65.406c0,0.432,0.084,0.75,0.254,0.956c0.169,0.207,0.383,0.311,0.639,0.311c0.259,0,0.473-0.103,0.639-0.305
		c0.167-0.204,0.25-0.53,0.25-0.979c0-0.42-0.084-0.73-0.252-0.937c-0.168-0.205-0.375-0.308-0.622-0.308
		c-0.263,0-0.479,0.104-0.649,0.313C188.295,64.665,188.209,64.981,188.209,65.406z"/>
	<path fill="#333333" d="M196.919,67.815h-1.677v-0.782c-0.25,0.321-0.502,0.551-0.758,0.688c-0.255,0.137-0.566,0.204-0.938,0.204
		c-0.495,0-0.882-0.152-1.163-0.458c-0.28-0.305-0.421-0.774-0.421-1.409v-3.079h1.806v2.66c0,0.304,0.055,0.521,0.163,0.646
		c0.108,0.127,0.262,0.19,0.459,0.19c0.215,0,0.392-0.085,0.527-0.255c0.138-0.171,0.205-0.476,0.205-0.916v-2.328h1.796V67.815
		L196.919,67.815z"/>
	<path fill="#333333" d="M197.098,61.024h1.92v1.525c0,0.563-0.113,1.007-0.34,1.332c-0.228,0.327-0.614,0.613-1.161,0.858
		l-0.419-0.813c0.341-0.163,0.575-0.326,0.703-0.489c0.129-0.162,0.199-0.354,0.215-0.576h-0.918V61.024z"/>
	<path fill="#333333" d="M198.79,62.978h1.869l0.909,3.064l0.943-3.064h1.813l-1.992,4.837h-1.595L198.79,62.978z"/>
	<path fill="#333333" d="M209.133,65.857h-3.603c0.032,0.297,0.11,0.52,0.234,0.665c0.174,0.209,0.399,0.313,0.68,0.313
		c0.178,0,0.345-0.045,0.503-0.136c0.098-0.059,0.202-0.16,0.313-0.306l1.771,0.168c-0.271,0.485-0.599,0.834-0.98,1.045
		s-0.932,0.315-1.646,0.315c-0.62,0-1.108-0.09-1.465-0.271c-0.355-0.181-0.65-0.468-0.885-0.86
		c-0.234-0.394-0.352-0.854-0.352-1.387c0-0.757,0.233-1.368,0.704-1.836c0.469-0.467,1.116-0.7,1.943-0.7
		c0.671,0,1.199,0.104,1.589,0.313c0.389,0.209,0.685,0.513,0.888,0.91c0.202,0.398,0.304,0.916,0.304,1.554L209.133,65.857
		L209.133,65.857z M207.306,64.969c-0.035-0.357-0.13-0.614-0.28-0.77s-0.352-0.232-0.598-0.232c-0.285,0-0.514,0.117-0.685,0.352
		c-0.109,0.146-0.179,0.363-0.208,0.65H207.306z"/>
	<path fill="#333333" d="M211.741,61.138h3.742c0.624,0,1.104,0.158,1.438,0.479c0.334,0.318,0.501,0.714,0.501,1.185
		c0,0.396-0.118,0.733-0.356,1.017c-0.158,0.188-0.393,0.337-0.697,0.446c0.465,0.114,0.807,0.313,1.025,0.594
		s0.329,0.635,0.329,1.06c0,0.347-0.078,0.658-0.234,0.935c-0.155,0.275-0.368,0.495-0.64,0.655
		c-0.168,0.101-0.422,0.174-0.76,0.219c-0.449,0.062-0.749,0.091-0.896,0.091h-3.451V61.138L211.741,61.138z M213.758,63.757h0.87
		c0.313,0,0.529-0.056,0.65-0.167c0.122-0.11,0.184-0.271,0.184-0.479c0-0.193-0.062-0.346-0.184-0.456
		c-0.121-0.109-0.334-0.163-0.638-0.163h-0.884L213.758,63.757L213.758,63.757z M213.758,66.381h1.021
		c0.345,0,0.588-0.063,0.729-0.188s0.213-0.295,0.213-0.508c0-0.197-0.07-0.355-0.211-0.477c-0.14-0.12-0.385-0.181-0.734-0.181
		h-1.016L213.758,66.381L213.758,66.381z"/>
	<path fill="#333333" d="M223.174,65.857h-3.603c0.032,0.297,0.11,0.52,0.234,0.665c0.174,0.209,0.399,0.313,0.68,0.313
		c0.178,0,0.345-0.045,0.503-0.136c0.098-0.059,0.202-0.16,0.313-0.306l1.771,0.168c-0.271,0.485-0.598,0.834-0.979,1.045
		s-0.932,0.315-1.646,0.315c-0.62,0-1.108-0.09-1.465-0.271c-0.355-0.181-0.65-0.468-0.885-0.86
		c-0.234-0.394-0.352-0.854-0.352-1.387c0-0.757,0.233-1.368,0.704-1.836c0.469-0.467,1.116-0.7,1.943-0.7
		c0.671,0,1.199,0.104,1.589,0.313c0.389,0.209,0.685,0.513,0.888,0.91c0.202,0.398,0.304,0.916,0.304,1.554L223.174,65.857
		L223.174,65.857z M221.347,64.969c-0.035-0.357-0.13-0.614-0.28-0.77s-0.352-0.232-0.599-0.232c-0.284,0-0.513,0.117-0.684,0.352
		c-0.109,0.146-0.179,0.363-0.208,0.65H221.347z"/>
	<path fill="#333333" d="M228.526,65.857h-3.603c0.032,0.297,0.11,0.52,0.234,0.665c0.174,0.209,0.399,0.313,0.68,0.313
		c0.178,0,0.345-0.045,0.503-0.136c0.098-0.059,0.202-0.16,0.313-0.306l1.771,0.168c-0.271,0.485-0.598,0.834-0.979,1.045
		c-0.383,0.211-0.932,0.315-1.646,0.315c-0.621,0-1.108-0.09-1.465-0.271c-0.355-0.181-0.65-0.468-0.885-0.86
		c-0.234-0.394-0.352-0.854-0.352-1.387c0-0.757,0.233-1.368,0.703-1.836c0.47-0.467,1.117-0.7,1.944-0.7
		c0.671,0,1.199,0.104,1.589,0.313c0.389,0.209,0.685,0.513,0.888,0.91c0.202,0.398,0.304,0.916,0.304,1.554L228.526,65.857
		L228.526,65.857z M226.699,64.969c-0.035-0.357-0.13-0.614-0.28-0.77s-0.352-0.232-0.599-0.232c-0.284,0-0.513,0.117-0.684,0.352
		c-0.109,0.146-0.179,0.363-0.208,0.65H226.699z"/>
	<path fill="#333333" d="M228.673,62.978h1.674v0.788c0.25-0.322,0.503-0.553,0.759-0.689c0.256-0.139,0.567-0.207,0.937-0.207
		c0.497,0,0.887,0.151,1.167,0.458c0.281,0.305,0.421,0.776,0.421,1.414v3.074h-1.805v-2.659c0-0.304-0.055-0.519-0.163-0.646
		c-0.108-0.126-0.263-0.188-0.459-0.188c-0.219,0-0.396,0.085-0.53,0.255s-0.202,0.475-0.202,0.916v2.322h-1.797L228.673,62.978
		L228.673,62.978z"/>
	<path fill="#333333" d="M236.48,61.138h2v5.032h3.121v1.645h-5.12L236.48,61.138L236.48,61.138z"/>
	<path fill="#333333" d="M241.492,65.411c0-0.738,0.24-1.347,0.724-1.824c0.483-0.479,1.136-0.717,1.956-0.717
		c0.938,0,1.647,0.28,2.127,0.842c0.386,0.453,0.578,1.011,0.578,1.672c0,0.744-0.238,1.354-0.717,1.829
		c-0.479,0.476-1.141,0.713-1.984,0.713c-0.753,0-1.361-0.196-1.826-0.592C241.777,66.844,241.492,66.203,241.492,65.411z
		 M243.293,65.406c0,0.432,0.084,0.75,0.254,0.956c0.169,0.207,0.383,0.311,0.639,0.311c0.259,0,0.473-0.103,0.639-0.305
		c0.167-0.204,0.25-0.53,0.25-0.979c0-0.42-0.084-0.73-0.251-0.937c-0.169-0.205-0.375-0.308-0.623-0.308
		c-0.263,0-0.479,0.104-0.649,0.313C243.378,64.665,243.293,64.981,243.293,65.406z"/>
	<path fill="#333333" d="M246.844,65.411c0-0.738,0.241-1.347,0.725-1.824c0.482-0.479,1.136-0.717,1.956-0.717
		c0.938,0,1.647,0.28,2.127,0.842c0.386,0.453,0.578,1.011,0.578,1.672c0,0.744-0.238,1.354-0.717,1.829
		c-0.479,0.476-1.141,0.713-1.984,0.713c-0.753,0-1.361-0.196-1.826-0.592C247.129,66.844,246.844,66.203,246.844,65.411z
		 M248.645,65.406c0,0.432,0.084,0.75,0.254,0.956c0.169,0.207,0.383,0.311,0.639,0.311c0.259,0,0.472-0.103,0.638-0.305
		c0.167-0.204,0.25-0.53,0.25-0.979c0-0.42-0.084-0.73-0.251-0.937c-0.168-0.205-0.375-0.308-0.623-0.308
		c-0.262,0-0.478,0.104-0.648,0.313C248.73,64.665,248.645,64.981,248.645,65.406z"/>
	<path fill="#333333" d="M252.416,61.138h1.836v3.446l1.342-1.606h2.212l-1.683,1.694l1.778,3.144h-2.023l-0.95-1.938l-0.677,0.683
		v1.257h-1.836L252.416,61.138L252.416,61.138z"/>
	<path fill="#333333" d="M257.833,61.138h1.797V62.4h-1.797V61.138z M257.833,62.978h1.797v4.837h-1.797V62.978z"/>
	<path fill="#333333" d="M260.099,62.978h1.673v0.788c0.25-0.322,0.503-0.553,0.76-0.689c0.256-0.139,0.567-0.207,0.936-0.207
		c0.497,0,0.887,0.151,1.167,0.458c0.281,0.305,0.422,0.776,0.422,1.414v3.074h-1.806v-2.659c0-0.304-0.055-0.519-0.163-0.646
		c-0.108-0.126-0.262-0.188-0.459-0.188c-0.218,0-0.396,0.085-0.529,0.255c-0.136,0.17-0.203,0.475-0.203,0.916v2.322H260.1
		L260.099,62.978L260.099,62.978z"/>
	<path fill="#333333" d="M268.712,62.978h1.683v4.568l0.004,0.214c0,0.305-0.063,0.594-0.188,0.868s-0.292,0.497-0.499,0.667
		c-0.208,0.17-0.471,0.293-0.791,0.369c-0.318,0.076-0.686,0.113-1.097,0.113c-0.941,0-1.589-0.146-1.94-0.438
		s-0.526-0.682-0.526-1.17c0-0.062,0.003-0.144,0.01-0.246l1.743,0.205c0.045,0.167,0.112,0.282,0.203,0.347
		c0.133,0.094,0.299,0.142,0.499,0.142c0.26,0,0.453-0.071,0.581-0.215s0.191-0.393,0.191-0.746v-0.733
		c-0.177,0.216-0.354,0.372-0.529,0.47c-0.275,0.151-0.575,0.229-0.896,0.229c-0.626,0-1.134-0.282-1.519-0.848
		c-0.273-0.4-0.411-0.932-0.411-1.59c0-0.753,0.177-1.327,0.529-1.723c0.354-0.396,0.815-0.592,1.387-0.592
		c0.364,0,0.666,0.063,0.902,0.19c0.237,0.128,0.458,0.339,0.664,0.633L268.712,62.978L268.712,62.978z M267.022,65.324
		c0,0.35,0.071,0.607,0.216,0.776s0.335,0.253,0.569,0.253c0.225,0,0.41-0.087,0.563-0.263c0.15-0.174,0.228-0.438,0.228-0.79
		c0-0.352-0.08-0.621-0.238-0.809s-0.354-0.28-0.583-0.28s-0.413,0.086-0.55,0.257C267.09,64.642,267.022,64.926,267.022,65.324z"/>
	<path fill="#333333" d="M273.267,61.138h4.942v1.436h-2.936v1.166h2.507v1.348h-2.507v2.729h-2.008L273.267,61.138L273.267,61.138z
		"/>
	<path fill="#333333" d="M277.96,65.411c0-0.738,0.241-1.347,0.725-1.824c0.482-0.479,1.135-0.717,1.956-0.717
		c0.938,0,1.647,0.28,2.127,0.842c0.385,0.453,0.578,1.011,0.578,1.672c0,0.744-0.239,1.354-0.718,1.829
		c-0.479,0.476-1.141,0.713-1.983,0.713c-0.753,0-1.361-0.196-1.827-0.592C278.245,66.844,277.96,66.203,277.96,65.411z
		 M279.76,65.406c0,0.432,0.085,0.75,0.255,0.956c0.169,0.207,0.382,0.311,0.638,0.311c0.26,0,0.473-0.103,0.639-0.305
		c0.167-0.204,0.25-0.53,0.25-0.979c0-0.42-0.084-0.73-0.251-0.937c-0.168-0.205-0.375-0.308-0.623-0.308
		c-0.262,0-0.479,0.104-0.648,0.313C279.846,64.665,279.76,64.981,279.76,65.406z"/>
	<path fill="#333333" d="M283.55,62.978h1.683v0.793c0.162-0.344,0.329-0.58,0.501-0.708c0.173-0.129,0.386-0.192,0.639-0.192
		c0.266,0,0.555,0.085,0.87,0.255l-0.557,1.32c-0.212-0.091-0.379-0.137-0.503-0.137c-0.235,0-0.418,0.102-0.548,0.301
		c-0.186,0.282-0.277,0.812-0.277,1.585v1.622h-1.806v-4.839H283.55z"/>
</g>
</svg>
