<?xml version="1.0" encoding="utf-8"?>
<!-- Generator: Adobe Illustrator 15.0.0, SVG Export Plug-In . SVG Version: 6.00 Build 0)  -->
<!DOCTYPE svg PUBLIC "-//W3C//DTD SVG 1.1//EN" "http://www.w3.org/Graphics/SVG/1.1/DTD/svg11.dtd">
<svg version="1.1" id="Layer_1" xmlns="http://www.w3.org/2000/svg" xmlns:xlink="http://www.w3.org/1999/xlink" x="0px" y="0px"
	 width="400px" height="400px" viewBox="-104.5 -59 400 400" enable-background="new -104.5 -59 400 400" xml:space="preserve">
<path fill="#A9A9A9" d="M251.243,15.729L126.115,140.856L251.278,266.02c27.529-34.253,44.013-77.76,44.013-125.124
	C295.291,93.512,278.793,49.988,251.243,15.729z"/>
<path fill="#D2D2D2" d="M95.356,110.098l125.12-125.12C186.23-42.53,142.739-59,95.395-59C48.031-59,4.524-42.516-29.729-14.987
	L95.356,110.098z"/>
<path fill="#B50000" d="M64.598,140.856L-60.487,15.771C-88.016,50.024-104.5,93.531-104.5,140.896
	c0,47.344,16.47,90.835,43.978,125.081L64.598,140.856z"/>
<path fill="#454545" d="M95.356,171.615L-29.771,296.743c34.259,27.55,77.783,44.048,125.167,44.048
	c47.365,0,90.872-16.483,125.125-44.013L95.356,171.615z"/>
</svg>
